<svg width="30" height="30" viewBox="0 0 30 30" fill="none" xmlns="http://www.w3.org/2000/svg">
<path d="M29.8302 8.10656C29.7438 7.98052 29.6291 7.87765 29.4959 7.80661C29.3627 7.73557 29.2148 7.69844 29.0647 7.69834H9.06798L7.5543 2.33843C6.9607 0.227845 5.55017 0 4.97165 0H0.935653C0.418345 0 0 0.43005 0 0.96072C0 1.49139 0.418816 1.92141 0.935624 1.92141H4.97115C5.09882 1.92141 5.48843 1.92141 5.75416 2.86423L10.9613 22.5145C11.0744 22.9291 11.4423 23.2154 11.8621 23.2154H24.5811C24.9759 23.2154 25.3283 22.9614 25.4616 22.5798L29.9447 8.98407C30.0479 8.68947 30.005 8.36149 29.8302 8.10656H29.8302ZM23.9226 21.2945H12.5722L9.59388 9.62026H27.7344L23.9226 21.2945ZM22.067 25.1625C20.7658 25.1625 19.7114 26.2452 19.7114 27.5813C19.7114 28.9174 20.7658 30 22.067 30C23.3682 30 24.4225 28.9174 24.4225 27.5813C24.4225 26.2452 23.3682 25.1625 22.067 25.1625ZM13.587 25.1625C12.2858 25.1625 11.2315 26.2452 11.2315 27.5813C11.2315 28.9174 12.2858 30 13.587 30C14.8882 30 15.9426 28.9174 15.9426 27.5813C15.9426 26.2452 14.8882 25.1625 13.587 25.1625Z" fill="#6B6C6C"/>
</svg>
