<svg width="29" height="30" viewBox="0 0 29 30" fill="none" xmlns="http://www.w3.org/2000/svg">
<path d="M17 22.5146V13.7109L26.375 9.02344V21.9141L18.4062 25.9131L18.8604 27.7734L28.25 23.0859V6.91406L16.0625 0.834961L3.875 6.91406V10.8691C4.55859 10.9766 5.18359 11.1963 5.75 11.5283V9.02344L15.125 13.7109V20.6396L17 22.5146ZM19.0801 4.42383L10.5254 9.31641L6.90723 7.5L16.0625 2.91504L19.0801 4.42383ZM16.0625 12.085L12.5469 10.3271L21.1016 5.43457L25.2178 7.5L16.0625 12.085ZM3.05469 13.125C2.64453 13.125 2.26367 13.1982 1.91211 13.3447C1.56055 13.4912 1.24805 13.6914 0.974609 13.9453C0.701172 14.1992 0.496094 14.5068 0.359375 14.8682C0.222656 15.2295 0.144531 15.6152 0.125 16.0254C0.125 16.4062 0.198242 16.7773 0.344727 17.1387C0.491211 17.5 0.701172 17.8174 0.974609 18.0908L11.4775 28.5938L17 29.9707L15.623 24.4482L5.12012 13.96C4.83691 13.6768 4.51953 13.4668 4.16797 13.3301C3.81641 13.1934 3.44531 13.125 3.05469 13.125ZM2.30762 16.7725C2.10254 16.5674 2 16.3184 2 16.0254C2 15.7227 2.09766 15.4785 2.29297 15.293C2.48828 15.1074 2.74219 15.0098 3.05469 15C3.19141 15 3.32324 15.0195 3.4502 15.0586C3.57715 15.0977 3.68945 15.1709 3.78711 15.2783L13.9238 25.415L14.4219 27.3926L12.4443 26.8945L2.30762 16.7725Z" fill="#6B6C6C"/>
</svg>
