<svg width="20" height="20" viewBox="0 0 20 20" fill="none" xmlns="http://www.w3.org/2000/svg">
<path d="M0.312494 2.0125C2.83749 5.25 7.49999 11.25 7.49999 11.25V18.75C7.49999 19.4375 8.06249 20 8.74999 20H11.25C11.9375 20 12.5 19.4375 12.5 18.75V11.25C12.5 11.25 17.15 5.25 19.675 2.0125C19.8183 1.82797 19.9068 1.60691 19.9306 1.37451C19.9544 1.14211 19.9124 0.907693 19.8095 0.697964C19.7066 0.488235 19.5469 0.311617 19.3485 0.188221C19.1501 0.0648248 18.9211 -0.000390044 18.6875 1.75505e-06H1.29999C0.262494 1.75505e-06 -0.325006 1.1875 0.312494 2.0125Z" fill="white"/>
</svg>
