<svg width="24" height="24" viewBox="0 0 24 24" fill="none" xmlns="http://www.w3.org/2000/svg">
<path d="M23.73 22.4217L18.7445 17.4468C20.5041 15.3515 21.3869 12.6578 21.209 9.92728C21.0311 7.19679 19.8061 4.64042 17.7896 2.79131C15.773 0.942206 13.1206 -0.0568523 10.3855 0.00250091C7.65037 0.0618542 5.04376 1.17504 3.10928 3.10988C1.17481 5.04472 0.0618423 7.65184 0.00250043 10.3875C-0.0568415 13.1231 0.942026 15.7761 2.79078 17.793C4.63953 19.8099 7.19542 21.0351 9.92538 21.2131C12.6553 21.391 15.3486 20.508 17.4435 18.7481L22.4174 23.7345C22.5935 23.9048 22.8288 24 23.0737 24C23.3186 24 23.5539 23.9048 23.73 23.7345C23.903 23.5599 24 23.324 24 23.0781C24 22.8323 23.903 22.5964 23.73 22.4217V22.4217ZM1.88827 10.6408C1.88827 8.9098 2.40147 7.21765 3.36299 5.77836C4.32451 4.33907 5.69116 3.21728 7.2901 2.55485C8.88905 1.89242 10.6485 1.71909 12.3459 2.0568C14.0433 2.3945 15.6025 3.22807 16.8263 4.45208C18.0501 5.6761 18.8835 7.23559 19.2211 8.93335C19.5588 10.6311 19.3855 12.3909 18.7232 13.9901C18.0609 15.5894 16.9393 16.9563 15.5003 17.918C14.0613 18.8797 12.3695 19.393 10.6388 19.393C8.31893 19.39 6.09498 18.4669 4.4546 16.8262C2.81422 15.1855 1.89131 12.9611 1.88827 10.6408V10.6408Z" fill="#6B6C6C"/>
</svg>
